<?xml version="1.0" encoding="UTF-8"?>
<svg width="700pt" height="00pt" version="1.1" viewBox="0 0 700 700" xmlns="http://www.w3.org/2000/svg">

 <g>
  <path d="m620.94 358.23c-0.82422-3.293-3.293-4.9414-6.5898-5.7656l-99.645-14.82-45.293-95.531c-1.6484-3.293-4.1172-4.9414-7.4102-4.9414-3.293 0-5.7656 1.6484-7.4102 4.9414l-4.9414 10.707-77.41-151.53c-2.4688-4.1172-5.7656-7.4102-10.707-8.2344l-100.48-28.824c-0.82422-0.82422-1.6484-2.4688-1.6484-3.293-11.531-23.059-31.293-39.531-56-47.766-23.883-8.2344-50.234-5.7656-73.293 5.7656-46.941 23.883-65.883 81.531-42 129.29 9.0586 18.117 23.059 32.117 41.176 41.176l-9.8828 26.355c-1.6484 4.1172-1.6484 9.8828 0.82422 14l132.59 261.06c4.1172 8.2344 11.531 14.824 20.59 17.293 9.0586 2.4688 18.117 2.4688 27.176-2.4688l70-35.41-15.648 70.824c-0.82422 3.293 0.82422 6.5898 3.293 8.2344 2.4688 1.6484 5.7656 2.4688 9.0586 0.82422l95.531-51.883 95.531 51.883c2.4688 1.6484 6.5898 1.6484 9.0586-0.82422 2.4688-1.6484 4.1172-4.9414 3.293-8.2344l-23.059-104.59 72.469-70.824c1.6484-1.6484 2.4727-4.9414 0.82422-7.4141zm-517.18-218.23c-19.766-38.707-4.1172-87.293 34.59-107.06 18.941-9.8828 40.352-11.531 60.117-4.9414 16.469 4.9414 30.469 15.648 40.352 29.648l-35.41-9.8828c-10.707-3.293-21.41 2.4688-25.531 13.176l-42.824 112.82c-13.176-7.4141-24.707-18.941-31.293-33.766zm188.59 351.65c-4.1172 2.4688-9.8828 2.4688-14 0.82422-4.9414-1.6484-8.2344-4.9414-10.707-9.0586l-132.59-261.88 9.8828-26.352c23.059 7.4102 47.766 5.7656 69.176-4.1172 13.176 11.531 32.117 13.176 47.766 4.9414 21.41-10.707 29.648-37.059 18.941-58.469-11.531-22.234-37.883-29.648-58.469-18.941-21.41 10.707-29.648 37.059-18.941 58.469v0.82422c-17.293 6.5898-35.41 7.4102-53.531 2.4688l42-112.82c0.82422-2.4688 3.293-3.293 5.7656-3.293l158.94 44.469 84 163.06-31.293 65.883-100.47 14.82c-3.293 0.82422-5.7656 2.4688-6.5898 5.7656-0.82422 3.293 0 6.5898 2.4688 8.2344l72.469 70.824-2.4648 12.355zm-62.586-358.24c5.7656-2.4688 11.531-3.293 18.117-2.4688-4.9414 14-16.469 30.469-29.648 39.531-7.4102-14.004-1.6445-30.473 11.531-37.062zm24.703 48.59c-7.4102 4.1172-16.469 4.1172-24.707 0 13.176-9.8828 25.531-26.352 32.117-42.824 12.355 13.176 9.0625 34.59-7.4102 42.824zm277.53 246.23c-1.6484 1.6484-3.293 4.9414-2.4688 7.4102l19.766 91.41-84-45.293c-0.82422-0.82422-2.4688-0.82422-4.1172-0.82422-1.6484 0-2.4688 0-4.1172 0.82422l-84 45.293 21.406-90.586c0.82422-2.4688 0-5.7656-2.4688-7.4102l-64.234-62.59 88.117-13.176c2.4688 0 4.9414-2.4688 6.5898-4.9414l39.531-84 39.531 84c0.82422 2.4688 3.293 4.1172 6.5898 4.9414l88.117 13.176z" fill="#e5636c"/>
  <path d="m404.35 264.35c-2.4688-4.1172-7.4102-5.7656-10.707-3.293l-153.18 78.234c-4.1172 2.4688-5.7656 7.4102-3.293 10.707 2.4688 4.1172 7.4102 5.7656 10.707 3.293l153.18-78.234c4.1172-1.6484 5.7656-6.5898 3.293-10.707z" fill="#e5636c"/>
  <path d="m375.53 210c-2.4688-4.1172-7.4102-5.7656-10.707-3.293l-153.18 78.234c-4.1172 2.4688-5.7656 7.4102-3.293 10.707 2.4688 4.1172 7.4102 5.7656 10.707 3.293l153.18-78.234c4.1133-2.4727 5.7617-7.4141 3.293-10.707z" fill="#e5636c"/>
  <path d="m298.94 374.71c-1.6484-4.1172-6.5898-5.7656-10.707-4.1172l-27.176 14c-4.1172 2.4688-5.7656 7.4102-3.293 10.707 2.4688 4.1172 7.4102 5.7656 10.707 3.293l27.176-14c4.1172-1.6484 5.7617-6.5898 3.293-9.8828z" fill="#e5636c"/>
  <path d="m338.47 410.94c-2.4688-4.1172-6.5898-5.7656-10.707-3.293l-43.645 21.41c-4.1172 2.4688-5.7656 7.4102-3.293 10.707 1.6484 4.1172 6.5898 5.7656 10.707 3.293l42.824-22.234c4.1133-1.6484 5.7617-6.5898 4.1133-9.8828z" fill="#e5636c"/>
  <path d="m462 346.71c-35.41 0-63.41 28.824-63.41 63.41 0 35.41 28.824 63.41 63.41 63.41 34.59 0 63.41-28.824 63.41-63.41 0-34.586-28.82-63.41-63.41-63.41zm0 110.35c-26.352 0-46.941-21.41-46.941-46.941s21.41-46.941 46.941-46.941c26.352 0 46.941 21.41 46.941 46.941 0 26.352-21.41 46.941-46.941 46.941z" fill="#e5636c"/>
  <path d="m466.12 403.53v-18.117c4.9414 0.82422 9.0586 2.4688 14 5.7656l6.5898-9.0586c-6.5898-4.1172-13.176-6.5898-19.766-7.4102v-4.1211h-5.7656v4.9414c-5.7656 0-11.531 2.4688-14.824 5.7656-4.1172 3.293-5.7656 8.2344-5.7656 13.176 0 5.7656 1.6484 9.8828 4.9414 12.352 3.293 2.4688 8.2344 4.9414 15.648 6.5898v18.117c-5.7656-0.82422-11.531-3.293-16.469-8.2344l-6.5898 8.2344c6.5898 5.7656 14.824 9.0586 23.059 10.707v6.5898h5.7656v-6.5898c6.5898 0 11.531-2.4688 15.648-5.7656 4.1172-3.293 5.7656-8.2344 5.7656-13.176 0-5.7656-1.6484-9.8828-4.9414-12.352-4.1211-3.2969-9.8828-5.7695-17.297-7.4141zm-6.5859-1.6484c-3.293-0.82422-5.7656-2.4688-7.4102-3.293-1.6484-1.6484-1.6484-3.293-1.6484-4.9414 0-2.4688 0.82422-4.1172 2.4688-4.9414 1.6484-1.6484 4.1172-2.4688 6.5898-2.4688zm14 28c-1.6484 1.6484-4.1172 2.4688-7.4102 2.4688v-17.293c4.1172 0.82422 6.5898 2.4688 7.4102 3.293 1.6484 1.6484 2.4688 3.293 2.4688 4.9414 0 3.2969-0.82422 4.9414-2.4688 6.5898z" fill="#e5636c"/>

 </g>
</svg>
