<?xml version="1.0" encoding="UTF-8"?>
<svg width="700pt" height="700pt" version="1.1" viewBox="0 0 700 700" xmlns="http://www.w3.org/2000/svg" xmlns:xlink="http://www.w3.org/1999/xlink">
 <defs>
  <symbol id="m" overflow="visible">
   <path d="m29.312-1.75c-1.5117 0.78125-3.0898 1.3711-4.7344 1.7656-1.6367 0.40625-3.3398 0.60938-5.1094 0.60938-5.3125 0-9.5273-1.4844-12.641-4.4531-3.1055-2.9688-4.6562-7-4.6562-12.094s1.5508-9.125 4.6562-12.094c3.1133-2.9688 7.3281-4.4531 12.641-4.4531 1.7695 0 3.4727 0.19922 5.1094 0.59375 1.6445 0.39844 3.2227 0.99219 4.7344 1.7812v6.5938c-1.5312-1.0391-3.0391-1.8008-4.5156-2.2812-1.4805-0.48828-3.0391-0.73438-4.6719-0.73438-2.9375 0-5.2461 0.94531-6.9219 2.8281-1.6797 1.875-2.5156 4.4648-2.5156 7.7656 0 3.293 0.83594 5.8828 2.5156 7.7656 1.6758 1.875 3.9844 2.8125 6.9219 2.8125 1.6328 0 3.1914-0.23828 4.6719-0.71875 1.4766-0.48828 2.9844-1.2539 4.5156-2.2969z"/>
  </symbol>
  <symbol id="h" overflow="visible">
   <path d="m21.453-17.406c-0.67969-0.3125-1.3516-0.53906-2.0156-0.6875-0.65625-0.15625-1.3203-0.23438-1.9844-0.23438-1.9688 0-3.4844 0.63281-4.5469 1.8906-1.0547 1.2617-1.5781 3.0703-1.5781 5.4219v11.016h-7.6562v-23.922h7.6562v3.9219c0.97656-1.5625 2.1016-2.7031 3.375-3.4219 1.2812-0.71875 2.8125-1.0781 4.5938-1.0781 0.25 0 0.52344 0.011719 0.82812 0.03125 0.30078 0.023438 0.73438 0.070312 1.2969 0.14062z"/>
  </symbol>
  <symbol id="c" overflow="visible">
   <path d="m27.562-12.031v2.1875h-17.891c0.1875 1.793 0.83203 3.1367 1.9375 4.0312 1.1133 0.89844 2.6719 1.3438 4.6719 1.3438 1.6016 0 3.25-0.23438 4.9375-0.70312 1.6875-0.47656 3.4219-1.2031 5.2031-2.1719v5.8906c-1.8047 0.6875-3.6094 1.2031-5.4219 1.5469-1.8125 0.35156-3.6211 0.53125-5.4219 0.53125-4.3359 0-7.7031-1.0977-10.109-3.2969-2.3984-2.207-3.5938-5.2969-3.5938-9.2656 0-3.9062 1.1758-6.9727 3.5312-9.2031 2.3633-2.2383 5.6094-3.3594 9.7344-3.3594 3.7578 0 6.7695 1.1367 9.0312 3.4062 2.2578 2.2617 3.3906 5.2812 3.3906 9.0625zm-7.8594-2.5312c0-1.457-0.42969-2.6289-1.2812-3.5156-0.84375-0.89453-1.9492-1.3438-3.3125-1.3438-1.4922 0-2.6992 0.41797-3.625 1.25-0.91797 0.83594-1.4922 2.0391-1.7188 3.6094z"/>
  </symbol>
  <symbol id="b" overflow="visible">
   <path d="m14.391-10.766c-1.5938 0-2.793 0.27344-3.5938 0.8125-0.80469 0.54297-1.2031 1.3398-1.2031 2.3906 0 0.96875 0.32031 1.7305 0.96875 2.2812 0.64453 0.54297 1.5469 0.8125 2.7031 0.8125 1.4375 0 2.6445-0.51562 3.625-1.5469 0.98828-1.0312 1.4844-2.3203 1.4844-3.875v-0.875zm11.688-2.8906v13.656h-7.7031v-3.5469c-1.0312 1.4492-2.1875 2.5078-3.4688 3.1719s-2.8398 1-4.6719 1c-2.4805 0-4.4961-0.72266-6.0469-2.1719-1.543-1.4453-2.3125-3.3203-2.3125-5.625 0-2.8125 0.96094-4.8672 2.8906-6.1719 1.9375-1.3125 4.9688-1.9688 9.0938-1.9688h4.5156v-0.60938c0-1.207-0.48047-2.0938-1.4375-2.6562-0.94922-0.5625-2.4375-0.84375-4.4688-0.84375-1.6367 0-3.1562 0.16797-4.5625 0.5-1.4062 0.32422-2.7188 0.8125-3.9375 1.4688v-5.8281c1.6445-0.40625 3.2891-0.70703 4.9375-0.90625 1.6562-0.20703 3.3047-0.3125 4.9531-0.3125 4.3203 0 7.4375 0.85547 9.3438 2.5625 1.9141 1.6992 2.875 4.4609 2.875 8.2812z"/>
  </symbol>
  <symbol id="g" overflow="visible">
   <path d="m12.031-30.719v6.7969h7.875v5.4688h-7.875v10.141c0 1.1172 0.21875 1.8711 0.65625 2.2656 0.4375 0.38672 1.3125 0.57812 2.625 0.57812h3.9375v5.4688h-6.5625c-3.0234 0-5.1641-0.62891-6.4219-1.8906-1.2617-1.2578-1.8906-3.3984-1.8906-6.4219v-10.141h-3.7969v-5.4688h3.7969v-6.7969z"/>
  </symbol>
  <symbol id="f" overflow="visible">
   <path d="m19.953-20.422v-12.812h7.6875v33.234h-7.6875v-3.4531c-1.0547 1.4062-2.2148 2.4375-3.4844 3.0938-1.2734 0.65625-2.7422 0.98438-4.4062 0.98438-2.9492 0-5.3711-1.1719-7.2656-3.5156-1.8867-2.3438-2.8281-5.3594-2.8281-9.0469s0.94141-6.7031 2.8281-9.0469c1.8945-2.3438 4.3164-3.5156 7.2656-3.5156 1.6562 0 3.1172 0.33594 4.3906 1 1.2812 0.65625 2.4453 1.6836 3.5 3.0781zm-5.0469 15.484c1.6445 0 2.8945-0.59766 3.75-1.7969 0.86328-1.1953 1.2969-2.9297 1.2969-5.2031 0-2.2812-0.43359-4.0195-1.2969-5.2188-0.85547-1.1953-2.1055-1.7969-3.75-1.7969-1.625 0-2.8711 0.60156-3.7344 1.7969-0.85547 1.1992-1.2812 2.9375-1.2812 5.2188 0 2.2734 0.42578 4.0078 1.2812 5.2031 0.86328 1.1992 2.1094 1.7969 3.7344 1.7969z"/>
  </symbol>
  <symbol id="e" overflow="visible">
   <path d="m16.406-4.9375c1.6328 0 2.8828-0.59766 3.75-1.7969 0.86328-1.1953 1.2969-2.9297 1.2969-5.2031 0-2.2812-0.43359-4.0195-1.2969-5.2188-0.86719-1.1953-2.1172-1.7969-3.75-1.7969-1.6367 0-2.8906 0.60547-3.7656 1.8125-0.875 1.1992-1.3125 2.9336-1.3125 5.2031 0 2.2617 0.4375 3.9961 1.3125 5.2031 0.875 1.1992 2.1289 1.7969 3.7656 1.7969zm-5.0781-15.484c1.0508-1.3945 2.2188-2.4219 3.5-3.0781 1.2812-0.66406 2.7539-1 4.4219-1 2.9453 0 5.3672 1.1719 7.2656 3.5156 1.8945 2.3438 2.8438 5.3594 2.8438 9.0469s-0.94922 6.7031-2.8438 9.0469c-1.8984 2.3438-4.3203 3.5156-7.2656 3.5156-1.668 0-3.1406-0.33594-4.4219-1s-2.4492-1.6914-3.5-3.0781v3.4531h-7.6562v-33.234h7.6562z"/>
  </symbol>
  <symbol id="a" overflow="visible">
   <path d="m0.53125-23.922h7.6562l6.4219 16.234 5.4688-16.234h7.6562l-10.062 26.188c-1.0117 2.6641-2.1953 4.5234-3.5469 5.5781-1.3438 1.0625-3.1211 1.5938-5.3281 1.5938h-4.4219v-5.0156h2.3906c1.3008 0 2.2422-0.21094 2.8281-0.625 0.59375-0.40625 1.0547-1.1484 1.3906-2.2188l0.20312-0.65625z"/>
  </symbol>
  <symbol id="d" overflow="visible">
   <path d="m4.0156-31.891h22.203v6.2188h-13.984v5.9375h13.141v6.2188h-13.141v7.2969h14.453v6.2188h-22.672z"/>
  </symbol>
  <symbol id="l" overflow="visible">
   <path d="m3.4219-9.3125v-14.609h7.6875v2.3906c0 1.293-0.011719 2.918-0.03125 4.875-0.011719 1.9609-0.015625 3.2656-0.015625 3.9219 0 1.9297 0.046875 3.3125 0.14062 4.1562 0.10156 0.84375 0.28125 1.4609 0.53125 1.8438 0.3125 0.5 0.71875 0.88672 1.2188 1.1562 0.50781 0.27344 1.0938 0.40625 1.75 0.40625 1.5938 0 2.8438-0.60938 3.75-1.8281 0.91406-1.2266 1.375-2.9297 1.375-5.1094v-11.812h7.6406v23.922h-7.6406v-3.4531c-1.1562 1.3867-2.3828 2.4141-3.6719 3.0781-1.2812 0.66406-2.6992 1-4.25 1-2.7734 0-4.8828-0.84766-6.3281-2.5469-1.4375-1.6953-2.1562-4.1602-2.1562-7.3906z"/>
  </symbol>
  <symbol id="k" overflow="visible">
   <path d="m23-23.172v6.2344c-1.0312-0.71875-2.0742-1.2422-3.125-1.5781-1.043-0.34375-2.125-0.51562-3.25-0.51562-2.1367 0-3.8047 0.625-5 1.875-1.1875 1.2422-1.7812 2.9805-1.7812 5.2188 0 2.2305 0.59375 3.9688 1.7812 5.2188 1.1953 1.25 2.8633 1.875 5 1.875 1.1953 0 2.332-0.17578 3.4062-0.53125 1.0703-0.36328 2.0625-0.89453 2.9688-1.5938v6.2656c-1.1875 0.4375-2.4023 0.76562-3.6406 0.98438-1.2305 0.22656-2.4648 0.34375-3.7031 0.34375-4.3125 0-7.6875-1.1094-10.125-3.3281s-3.6562-5.2969-3.6562-9.2344c0-3.9453 1.2188-7.0234 3.6562-9.2344 2.4375-2.2188 5.8125-3.3281 10.125-3.3281 1.25 0 2.4844 0.10938 3.7031 0.32812s2.4297 0.55469 3.6406 1z"/>
  </symbol>
  <symbol id="j" overflow="visible">
   <path d="m3.6719-33.234h7.6562v33.234h-7.6562z"/>
  </symbol>
  <symbol id="i" overflow="visible">
   <path d="m11.328-3.4531v12.547h-7.6562v-33.016h7.6562v3.5c1.0508-1.3945 2.2188-2.4219 3.5-3.0781 1.2812-0.66406 2.7539-1 4.4219-1 2.9453 0 5.3672 1.1719 7.2656 3.5156 1.8945 2.3438 2.8438 5.3594 2.8438 9.0469s-0.94922 6.7031-2.8438 9.0469c-1.8984 2.3438-4.3203 3.5156-7.2656 3.5156-1.668 0-3.1406-0.33594-4.4219-1s-2.4492-1.6914-3.5-3.0781zm5.0781-15.5c-1.6367 0-2.8906 0.60547-3.7656 1.8125-0.875 1.1992-1.3125 2.9336-1.3125 5.2031 0 2.2617 0.4375 3.9961 1.3125 5.2031 0.875 1.1992 2.1289 1.7969 3.7656 1.7969 1.6328 0 2.8828-0.59766 3.75-1.7969 0.86328-1.1953 1.2969-2.9297 1.2969-5.2031 0-2.2812-0.43359-4.0195-1.2969-5.2188-0.86719-1.1953-2.1172-1.7969-3.75-1.7969z"/>
  </symbol>
 </defs>
 <g>
  <path d="m608.06 366.64-14.211-26.891c0.67578-2.3164 1.1484-4.7227 1.1484-7.25 0-6.7461-2.6328-12.844-6.8242-17.5 4.1992-4.6562 6.8242-10.754 6.8242-17.5s-2.6328-12.844-6.8242-17.5c4.1992-4.6562 6.8242-10.754 6.8242-17.5 0-3.457-0.70703-6.7383-1.9258-9.7656 11.156-3.0273 19.426-13.133 19.426-25.234 0-14.473-11.777-26.25-26.25-26.25h-2.4219l25.219-44.117c2.2539-3.957 3.4531-8.4609 3.4531-13.027v-4.1055c0-14.473-11.777-26.25-26.25-26.25-13.176 0-20.301 6.3359-25.508 10.953-4.4336 3.9492-7.3672 6.5469-13.895 6.5469-6.5195 0-9.4492-2.5977-13.887-6.5469-5.2031-4.6172-12.328-10.953-25.504-10.953-13.168 0-20.293 6.3359-25.496 10.953-4.4375 3.9492-7.3594 6.5469-13.879 6.5469-6.5 0-9.4219-2.5977-13.844-6.5352-5.207-4.6289-12.32-10.965-25.488-10.965-14.473 0-26.25 11.777-26.25 26.25v4.1055c0 4.5664 1.1992 9.0742 3.4648 13.02l10.211 17.875h-11.609c-9.5977 0-19.18 1.6641-28.316 4.6289v-127.13c0-24.125-19.625-43.75-43.75-43.75h-210c-24.125 0-43.75 19.625-43.75 43.75v455c0 24.125 19.625 43.75 43.75 43.75h210c24.125 0 43.75-19.625 43.75-43.75v-167.9c1.4961 0.75391 3.0273 1.418 4.4727 2.2852l8.3047 4.9883c7.2812 4.3672 15.199 7.4453 23.379 9.4141l-5.4688 10.352c-8.6289 16.324-13.188 34.699-13.188 53.363 0 62.719 51.031 113.75 113.75 113.75s113.75-51.031 113.75-113.96c0-18.453-4.5586-36.828-13.188-53.148zm-188.06-226.64c0-4.8203 3.9219-8.75 8.75-8.75 6.5 0 9.4336 2.5977 13.852 6.5352 5.207 4.6289 12.32 10.965 25.48 10.965 13.168 0 20.293-6.3359 25.496-10.953 4.4375-3.9492 7.3594-6.5469 13.879-6.5469s9.4492 2.5977 13.887 6.5469c5.2031 4.6172 12.328 10.953 25.504 10.953 13.176 0 20.309-6.3359 25.516-10.953 4.4375-3.9492 7.3672-6.5469 13.887-6.5469 4.8281 0 8.75 3.9297 8.75 8.75v4.1055c0 1.5234-0.40234 3.0195-1.1562 4.3398l-30.168 52.805h-112.35l-30.172-52.816c-0.75-1.3125-1.1523-2.8086-1.1523-4.3281zm-297.5-113.75h210c14.473 0 26.25 11.777 26.25 26.25v26.25h-262.5v-26.25c0-14.473 11.777-26.25 26.25-26.25zm210 507.5h-210c-14.473 0-26.25-11.777-26.25-26.25v-26.25h262.5v26.25c0 14.473-11.777 26.25-26.25 26.25zm26.25-70h-262.5v-367.5h262.5v90.5c-5.6172 2.3203-11.488 3.9648-17.5 4.8555v-77.855h-227.5v332.5h227.5v-113.75h5.5898c4.0156 0 7.9883 0.5 11.91 1.2266zm-157.5-288.75v175h105v-17.5h17.5v96.25h-192.5v-297.5h192.5v61.25h-17.5v-17.5zm52.5 52.5v105h-35v-140h35v17.5h17.5v-17.5h17.5v140h-17.5v-105zm135.98 99.375c-12.953-7.7695-27.793-11.875-42.887-11.875h-40.59v-105h24.184c14.148 0 28.324-3.3438 40.984-9.668 10.238-5.1172 21.699-7.832 33.152-7.832h21.605l14.996 26.25h145.08c4.8281 0 8.75 3.9297 8.75 8.75s-3.9219 8.75-8.75 8.75h-122.5v17.5h105c4.8281 0 8.75 3.9297 8.75 8.75s-3.9219 8.75-8.75 8.75h-105v17.5h105c4.8281 0 8.75 3.9297 8.75 8.75s-3.9219 8.75-8.75 8.75h-105v17.5h105c4.8281 0 8.75 3.9297 8.75 8.75s-3.9219 8.75-8.75 8.75h-136.84c-11.926 0-23.652-3.2461-33.879-9.3789zm117.77 189.38c-53.07 0-96.25-43.18-96.25-96.461 0-15.609 3.8516-31.168 11.148-44.965l8.5234-16.137c0.33203 0 0.65625 0.070312 0.98047 0.070312h136.85c4.8984 0 9.4336-1.4336 13.359-3.7812l10.492 19.844c7.2969 13.801 11.148 29.352 11.148 45.18 0 53.07-43.18 96.25-96.25 96.25z"/>
  <path d="m507.5 411.25c4.8281 0 8.75 3.9297 8.75 8.75h17.5c0-11.391-7.3398-21.016-17.5-24.641v-19.109h-17.5v19.109c-10.16 3.6211-17.5 13.246-17.5 24.641 0 14.473 11.777 26.25 26.25 26.25 4.8281 0 8.75 3.9297 8.75 8.75s-3.9219 8.75-8.75 8.75-8.75-3.9297-8.75-8.75h-17.5c0 11.391 7.3398 21.016 17.5 24.641v19.109h17.5v-19.109c10.16-3.6211 17.5-13.246 17.5-24.641 0-14.473-11.777-26.25-26.25-26.25-4.8281 0-8.75-3.9297-8.75-8.75s3.9219-8.75 8.75-8.75z"/>
  <path d="m192.5 43.75h70v17.5h-70z"/>
  <path d="m280 43.75h17.5v17.5h-17.5z"/>
  <path d="m157.5 43.75h17.5v17.5h-17.5z"/>
  <path d="m201.25 498.75h52.5v17.5h-52.5z"/>
  <use x="70" y="691.25" xlink:href="#m"/>
  <use x="102.109375" y="691.25" xlink:href="#h"/>
  <use x="123.683594" y="691.25" xlink:href="#c"/>
  <use x="153.355469" y="691.25" xlink:href="#b"/>
  <use x="182.878906" y="691.25" xlink:href="#g"/>
  <use x="203.792969" y="691.25" xlink:href="#c"/>
  <use x="233.464844" y="691.25" xlink:href="#f"/>
  <use x="280.011719" y="691.25" xlink:href="#e"/>
  <use x="311.328125" y="691.25" xlink:href="#a"/>
  <use x="355.078125" y="691.25" xlink:href="#d"/>
  <use x="384.964844" y="691.25" xlink:href="#l"/>
  <use x="416.113281" y="691.25" xlink:href="#k"/>
  <use x="442.046875" y="691.25" xlink:href="#b"/>
  <use x="471.570312" y="691.25" xlink:href="#j"/>
  <use x="486.566406" y="691.25" xlink:href="#a"/>
  <use x="515.082031" y="691.25" xlink:href="#i"/>
 </g>
</svg>
