<?xml version="1.0" encoding="UTF-8"?>
<svg width="700pt" height="700pt" version="1.1" viewBox="0 0 700 700" xmlns="http://www.w3.org/2000/svg" xmlns:xlink="http://www.w3.org/1999/xlink">
 <defs>
  <symbol id="p" overflow="visible">
   <path d="m29.312-1.75c-1.5117 0.78125-3.0898 1.3711-4.7344 1.7656-1.6367 0.40625-3.3398 0.60938-5.1094 0.60938-5.3125 0-9.5273-1.4844-12.641-4.4531-3.1055-2.9688-4.6562-7-4.6562-12.094s1.5508-9.125 4.6562-12.094c3.1133-2.9688 7.3281-4.4531 12.641-4.4531 1.7695 0 3.4727 0.19922 5.1094 0.59375 1.6445 0.39844 3.2227 0.99219 4.7344 1.7812v6.5938c-1.5312-1.0391-3.0391-1.8008-4.5156-2.2812-1.4805-0.48828-3.0391-0.73438-4.6719-0.73438-2.9375 0-5.2461 0.94531-6.9219 2.8281-1.6797 1.875-2.5156 4.4648-2.5156 7.7656 0 3.293 0.83594 5.8828 2.5156 7.7656 1.6758 1.875 3.9844 2.8125 6.9219 2.8125 1.6328 0 3.1914-0.23828 4.6719-0.71875 1.4766-0.48828 2.9844-1.2539 4.5156-2.2969z"/>
  </symbol>
  <symbol id="j" overflow="visible">
   <path d="m21.453-17.406c-0.67969-0.3125-1.3516-0.53906-2.0156-0.6875-0.65625-0.15625-1.3203-0.23438-1.9844-0.23438-1.9688 0-3.4844 0.63281-4.5469 1.8906-1.0547 1.2617-1.5781 3.0703-1.5781 5.4219v11.016h-7.6562v-23.922h7.6562v3.9219c0.97656-1.5625 2.1016-2.7031 3.375-3.4219 1.2812-0.71875 2.8125-1.0781 4.5938-1.0781 0.25 0 0.52344 0.011719 0.82812 0.03125 0.30078 0.023438 0.73438 0.070312 1.2969 0.14062z"/>
  </symbol>
  <symbol id="b" overflow="visible">
   <path d="m27.562-12.031v2.1875h-17.891c0.1875 1.793 0.83203 3.1367 1.9375 4.0312 1.1133 0.89844 2.6719 1.3438 4.6719 1.3438 1.6016 0 3.25-0.23438 4.9375-0.70312 1.6875-0.47656 3.4219-1.2031 5.2031-2.1719v5.8906c-1.8047 0.6875-3.6094 1.2031-5.4219 1.5469-1.8125 0.35156-3.6211 0.53125-5.4219 0.53125-4.3359 0-7.7031-1.0977-10.109-3.2969-2.3984-2.207-3.5938-5.2969-3.5938-9.2656 0-3.9062 1.1758-6.9727 3.5312-9.2031 2.3633-2.2383 5.6094-3.3594 9.7344-3.3594 3.7578 0 6.7695 1.1367 9.0312 3.4062 2.2578 2.2617 3.3906 5.2812 3.3906 9.0625zm-7.8594-2.5312c0-1.457-0.42969-2.6289-1.2812-3.5156-0.84375-0.89453-1.9492-1.3438-3.3125-1.3438-1.4922 0-2.6992 0.41797-3.625 1.25-0.91797 0.83594-1.4922 2.0391-1.7188 3.6094z"/>
  </symbol>
  <symbol id="i" overflow="visible">
   <path d="m14.391-10.766c-1.5938 0-2.793 0.27344-3.5938 0.8125-0.80469 0.54297-1.2031 1.3398-1.2031 2.3906 0 0.96875 0.32031 1.7305 0.96875 2.2812 0.64453 0.54297 1.5469 0.8125 2.7031 0.8125 1.4375 0 2.6445-0.51562 3.625-1.5469 0.98828-1.0312 1.4844-2.3203 1.4844-3.875v-0.875zm11.688-2.8906v13.656h-7.7031v-3.5469c-1.0312 1.4492-2.1875 2.5078-3.4688 3.1719s-2.8398 1-4.6719 1c-2.4805 0-4.4961-0.72266-6.0469-2.1719-1.543-1.4453-2.3125-3.3203-2.3125-5.625 0-2.8125 0.96094-4.8672 2.8906-6.1719 1.9375-1.3125 4.9688-1.9688 9.0938-1.9688h4.5156v-0.60938c0-1.207-0.48047-2.0938-1.4375-2.6562-0.94922-0.5625-2.4375-0.84375-4.4688-0.84375-1.6367 0-3.1562 0.16797-4.5625 0.5-1.4062 0.32422-2.7188 0.8125-3.9375 1.4688v-5.8281c1.6445-0.40625 3.2891-0.70703 4.9375-0.90625 1.6562-0.20703 3.3047-0.3125 4.9531-0.3125 4.3203 0 7.4375 0.85547 9.3438 2.5625 1.9141 1.6992 2.875 4.4609 2.875 8.2812z"/>
  </symbol>
  <symbol id="h" overflow="visible">
   <path d="m12.031-30.719v6.7969h7.875v5.4688h-7.875v10.141c0 1.1172 0.21875 1.8711 0.65625 2.2656 0.4375 0.38672 1.3125 0.57812 2.625 0.57812h3.9375v5.4688h-6.5625c-3.0234 0-5.1641-0.62891-6.4219-1.8906-1.2617-1.2578-1.8906-3.3984-1.8906-6.4219v-10.141h-3.7969v-5.4688h3.7969v-6.7969z"/>
  </symbol>
  <symbol id="g" overflow="visible">
   <path d="m19.953-20.422v-12.812h7.6875v33.234h-7.6875v-3.4531c-1.0547 1.4062-2.2148 2.4375-3.4844 3.0938-1.2734 0.65625-2.7422 0.98438-4.4062 0.98438-2.9492 0-5.3711-1.1719-7.2656-3.5156-1.8867-2.3438-2.8281-5.3594-2.8281-9.0469s0.94141-6.7031 2.8281-9.0469c1.8945-2.3438 4.3164-3.5156 7.2656-3.5156 1.6562 0 3.1172 0.33594 4.3906 1 1.2812 0.65625 2.4453 1.6836 3.5 3.0781zm-5.0469 15.484c1.6445 0 2.8945-0.59766 3.75-1.7969 0.86328-1.1953 1.2969-2.9297 1.2969-5.2031 0-2.2812-0.43359-4.0195-1.2969-5.2188-0.85547-1.1953-2.1055-1.7969-3.75-1.7969-1.625 0-2.8711 0.60156-3.7344 1.7969-0.85547 1.1992-1.2812 2.9375-1.2812 5.2188 0 2.2734 0.42578 4.0078 1.2812 5.2031 0.86328 1.1992 2.1094 1.7969 3.7344 1.7969z"/>
  </symbol>
  <symbol id="f" overflow="visible">
   <path d="m16.406-4.9375c1.6328 0 2.8828-0.59766 3.75-1.7969 0.86328-1.1953 1.2969-2.9297 1.2969-5.2031 0-2.2812-0.43359-4.0195-1.2969-5.2188-0.86719-1.1953-2.1172-1.7969-3.75-1.7969-1.6367 0-2.8906 0.60547-3.7656 1.8125-0.875 1.1992-1.3125 2.9336-1.3125 5.2031 0 2.2617 0.4375 3.9961 1.3125 5.2031 0.875 1.1992 2.1289 1.7969 3.7656 1.7969zm-5.0781-15.484c1.0508-1.3945 2.2188-2.4219 3.5-3.0781 1.2812-0.66406 2.7539-1 4.4219-1 2.9453 0 5.3672 1.1719 7.2656 3.5156 1.8945 2.3438 2.8438 5.3594 2.8438 9.0469s-0.94922 6.7031-2.8438 9.0469c-1.8984 2.3438-4.3203 3.5156-7.2656 3.5156-1.668 0-3.1406-0.33594-4.4219-1s-2.4492-1.6914-3.5-3.0781v3.4531h-7.6562v-33.234h7.6562z"/>
  </symbol>
  <symbol id="e" overflow="visible">
   <path d="m0.53125-23.922h7.6562l6.4219 16.234 5.4688-16.234h7.6562l-10.062 26.188c-1.0117 2.6641-2.1953 4.5234-3.5469 5.5781-1.3438 1.0625-3.1211 1.5938-5.3281 1.5938h-4.4219v-5.0156h2.3906c1.3008 0 2.2422-0.21094 2.8281-0.625 0.59375-0.40625 1.0547-1.1484 1.3906-2.2188l0.20312-0.65625z"/>
  </symbol>
  <symbol id="a" overflow="visible">
   <path d="m4.0156-31.891h8.2188v25.672h14.453v6.2188h-22.672z"/>
  </symbol>
  <symbol id="o" overflow="visible">
   <path d="m4.0156-31.891h8.2188v19.109c0 2.6367 0.42969 4.5234 1.2969 5.6562 0.86328 1.1367 2.2695 1.7031 4.2188 1.7031 1.9688 0 3.3789-0.56641 4.2344-1.7031 0.86328-1.1328 1.2969-3.0195 1.2969-5.6562v-19.109h8.2344v19.109c0 4.5234-1.1367 7.8867-3.4062 10.094-2.2617 2.2109-5.7148 3.3125-10.359 3.3125-4.625 0-8.0742-1.1016-10.344-3.3125-2.2617-2.207-3.3906-5.5703-3.3906-10.094z"/>
  </symbol>
  <symbol id="n" overflow="visible">
   <path d="m0.21875-31.891h29.391v6.2188h-10.578v25.672h-8.2188v-25.672h-10.594z"/>
  </symbol>
  <symbol id="m" overflow="visible">
   <path d="m4.0156-31.891h22.203v6.2188h-13.984v5.9375h13.141v6.2188h-13.141v13.516h-8.2188z"/>
  </symbol>
  <symbol id="d" overflow="visible">
   <path d="m4.0156-31.891h8.2188v31.891h-8.2188z"/>
  </symbol>
  <symbol id="l" overflow="visible">
   <path d="m32.688-2.375c-2.0547 1-4.1836 1.75-6.3906 2.25-2.2109 0.5-4.4844 0.75-6.8281 0.75-5.3125 0-9.5273-1.4844-12.641-4.4531-3.1055-2.9688-4.6562-7-4.6562-12.094 0-5.1328 1.5781-9.1758 4.7344-12.125 3.1641-2.9453 7.5-4.4219 13-4.4219 2.125 0 4.1562 0.19922 6.0938 0.59375 1.9453 0.39844 3.7852 0.99219 5.5156 1.7812v6.5938c-1.7812-1.0078-3.5547-1.7656-5.3125-2.2656-1.7617-0.5-3.5273-0.75-5.2969-0.75-3.2734 0-5.793 0.91797-7.5625 2.75-1.7734 1.8359-2.6562 4.4492-2.6562 7.8438 0 3.375 0.85156 5.9844 2.5625 7.8281 1.707 1.8359 4.1328 2.75 7.2812 2.75 0.85156 0 1.6445-0.050781 2.375-0.15625 0.73828-0.10156 1.3984-0.26953 1.9844-0.5v-6.2031h-5.0312v-5.5h12.828z"/>
  </symbol>
  <symbol id="c" overflow="visible">
   <path d="m23.375-5.8125h-12.859l-2.0312 5.8125h-8.2656l11.812-31.891h9.7969l11.812 31.891h-8.2656zm-10.812-5.9219h8.7344l-4.3594-12.688z"/>
  </symbol>
  <symbol id="k" overflow="visible">
   <path d="m4.0156-31.891h9.1875l11.594 21.875v-21.875h7.7969v31.891h-9.1875l-11.594-21.875v21.875h-7.7969z"/>
  </symbol>
 </defs>
 <g>
  <path d="m602.88 269.56c-4.2773-53.891-25.625-105.01-60.941-145.94-35.316-40.93-82.758-69.535-135.44-81.664-14.891-15.152-35.25-23.688-56.496-23.688s-41.605 8.5352-56.496 23.688c-52.684 12.129-100.12 40.734-135.44 81.664-35.316 40.93-56.664 92.051-60.941 145.94l-6.3711 11.039-0.003906-0.003906c-4.1172 7.1797-5.5586 15.582-4.0664 23.719 1.4883 8.1367 5.8164 15.484 12.211 20.734 47.633 289 454.69 288.81 502.22 0 6.3945-5.25 10.723-12.598 12.211-20.734 1.4922-8.1367 0.050782-16.539-4.0664-23.719zm-252.88-234.12c16.238 0.019532 31.805 6.4805 43.289 17.961 11.48 11.484 17.941 27.051 17.961 43.289-3.0859 81.145-119.43 81.121-122.5 0 0.019531-16.238 6.4805-31.805 17.961-43.289 11.484-11.48 27.051-17.941 43.289-17.961zm-71.645 28.742c-11.07 24.359-9.0039 52.672 5.4805 75.168 14.484 22.496 39.41 36.09 66.164 36.09 26.758 0 51.68-13.594 66.164-36.09 14.484-22.496 16.551-50.809 5.4805-75.168 37.141 11.934 70.762 32.848 97.883 60.887 27.121 28.039 46.898 62.34 57.586 99.859l-30.664-53.121c-4.625-8.0547-12.277-13.922-21.254-16.301-25.266-6.7266-58.965 18.926-50.664 46.695-42.773 33.02-88.918-40.547-170.44 25.488-23.34-15.664-50.742-24.184-78.852-24.52 2.1172-7.4609 1.6797-15.418-1.2383-22.605-2.9141-7.1875-8.1445-13.199-14.863-17.078-9.6602-7.6914-22.27-10.621-34.332-7.9805-8.9766 2.3789-16.629 8.2461-21.254 16.301l-30.664 53.121c10.688-37.52 30.469-71.82 57.586-99.859 27.121-28.039 60.742-48.953 97.883-60.887zm118.57 292.45c0.050781 0.042969 33.27 33.285 33.324 33.316 4.3047 4.4375 5.9453 10.82 4.3164 16.785-1.6289 5.9648-6.2852 10.625-12.246 12.262-5.9648 1.6328-12.348 0-16.793-4.3008l-31.844-31.848c-3.4336-3.375-8.9453-3.3438-12.344 0.0625-3.4023 3.4102-3.4141 8.9219-0.03125 12.344 0.10156 0.085938 31.805 31.84 31.914 31.895v0.003906c4.2891 4.4648 5.8945 10.863 4.2344 16.828-1.6641 5.9609-6.3516 10.602-12.328 12.207-5.9805 1.6055-12.359-0.0625-16.789-4.3906-0.035156-0.046875-12.297-12.277-12.32-12.328-4.9961-4.6328-11.227-14.406-18.957-8.4609 4.4688-7.293 6.0859-15.98 4.5391-24.391-1.5469-8.4102-6.1445-15.953-12.914-21.18-6.7695-5.2266-15.234-7.7656-23.762-7.1289 0.66016-9.1875-2.3359-18.262-8.3359-25.25-6-6.9883-14.52-11.32-23.699-12.055-9.1797-0.73828-18.277 2.1836-25.316 8.1289-3.1641-12.105-12.543-21.609-24.609-24.93-12.062-3.3242-24.984 0.035156-33.902 8.8125l-26.77 26.77c-8.4453-6.6328-14.844-15.508-18.473-25.613 6.4258-3.0156 11.777-7.9297 15.324-14.078l57.199-99.082c26.039-1.5273 51.918 4.9688 74.148 18.617-5.543 5.2539-11.18 10.922-17.031 17.508-1.7617 1.9727-2.5312 4.6367-2.0938 7.2461 4.9336 28.523 32.07 54.867 73.793 32.641 42.578-21.293 63.59 0.94922 107.09 53.289 6.1758 7.832 6.7305 8.8672 19.645 11.219l-0.003906-0.003906c1.0312 4.9102-0.10156 10.027-3.1094 14.043-3.0117 4.0156-7.6016 6.543-12.605 6.9297-5.0039 0.39062-9.9297-1.3945-13.523-4.8945l-33.34-33.348-0.003906 0.003907c-3.4336-3.3047-8.8789-3.25-12.25 0.11719-3.3711 3.3711-3.4297 8.8164-0.12891 12.254zm-188.61 56.121c11.621-11.617 37.637-37.629 49.5-49.492 4.4414-4.3125 10.832-5.957 16.805-4.3281 5.9727 1.6328 10.641 6.3008 12.27 12.273 1.6328 5.9727-0.015625 12.359-4.3281 16.801l-49.5 49.5c-4.4414 4.3125-10.832 5.957-16.805 4.3242-5.9727-1.6367-10.637-6.3008-12.266-12.273-1.6328-5.9727 0.011718-12.363 4.3242-16.805zm-11.043-13.703c-4.4492 4.2969-10.84 5.9258-16.805 4.2812s-10.617-6.3125-12.238-12.281c-1.625-5.9727 0.023437-12.355 4.3359-16.793l28.871-28.871c4.4258-4.3945 10.855-6.1055 16.879-4.4844 6.0273 1.6211 10.73 6.3242 12.355 12.348 1.6211 6.0234-0.085937 12.457-4.4805 16.883-6.6445 6.6875-22.121 22.098-28.918 28.918zm48.164 50.832 49.5-49.5c4.4414-4.3125 10.832-5.9609 16.801-4.3281 5.9727 1.6328 10.641 6.2969 12.27 12.27 1.6328 5.9727-0.011718 12.363-4.3242 16.805-11.258 11.262-38.562 38.57-49.492 49.5-4.4414 4.3125-10.832 5.957-16.805 4.3242-5.9727-1.6289-10.637-6.293-12.27-12.266-1.6328-5.9727 0.007812-12.359 4.3203-16.805zm86.621-12.383c0.69141-0.69141 1.2109-1.4961 1.8359-2.2305-2.7891 6.7578 6.0391 12.367 9.7891 16.609h-0.003906c4.3047 4.4453 5.9375 10.832 4.2969 16.797-1.6406 5.9648-6.3125 10.617-12.281 12.238-5.9688 1.6211-12.352-0.035156-16.781-4.3555l-12.957-12.957zm136.84-94.547c-41.434-49.996-73.602-91.383-131.56-61.582-23.871 13.004-42.02 5.1172-47.723-16.016 91.945-101.2 128.56-7.1758 192.48-47.035l57.512 99.625 1.4375 3.9023c-32.941 30.016-64.18 23.48-72.152 21.105zm-362.99-53.602 62.805-108.79c2.3359-4.0039 6.1602-6.9219 10.637-8.1211 4.4766-1.1992 9.25-0.57812 13.273 1.7227 6.1367 3.5117 14.453 7.3672 15.926 15.109 1.2109 4.4805 0.58203 9.2617-1.75 13.277l-62.805 108.79c-2.3086 4.0312-6.1406 6.9688-10.633 8.1523-7.3906 2.5586-14.992-2.6289-21.055-6.2383-4.0156-2.3242-6.9414-6.1484-8.1445-10.629-1.1992-4.4844-0.57031-9.2578 1.7461-13.281zm244.09 236.09c-54.512-0.058593-107.33-18.953-149.51-53.477-42.184-34.523-71.145-82.562-81.984-135.98 2.5586 0.79297 5.1992 1.2852 7.8711 1.4688 4.6758 14.578 13.75 27.352 25.977 36.566-4.0938 10.926-2.5 23.172 4.25 32.688 6.7539 9.5156 17.789 15.062 29.453 14.801-1.0508 10.223 2.457 20.387 9.5898 27.785 7.1328 7.3945 17.164 11.273 27.414 10.594-0.5625 9.4727 2.7422 18.773 9.1602 25.77 6.418 6.9922 15.398 11.086 24.887 11.34s18.676-3.3516 25.457-9.9961l11.02-11.023 12.957 12.957c6.0625 5.8984 14.043 9.418 22.484 9.918 8.4414 0.50391 16.781-2.0508 23.5-7.1875 6.7148-5.1406 11.359-12.523 13.082-20.801 11.191 5.293 24.348 4.2852 34.602-2.6523 10.254-6.9375 16.082-18.773 15.328-31.129 10.023 0.66016 19.848-3.0312 26.949-10.133 7.1055-7.1016 10.805-16.918 10.148-26.941 10.102 0.70313 20.012-3.0273 27.145-10.219 7.1289-7.1914 10.773-17.133 9.9805-27.23 24.414-1.5195 47.41-11.98 64.598-29.383 8.2617 4.6797 18.098 5.6992 27.141 2.8047-10.84 53.426-39.801 101.46-81.984 135.99-42.184 34.523-95 53.414-149.51 53.477zm237.7-212.19-7.7773 4.4844v0.003906c-4.0234 2.3008-8.793 2.918-13.273 1.7188-4.4766-1.1992-8.3008-4.1172-10.637-8.1211l-62.805-108.79c-2.2969-4.0234-2.9141-8.7891-1.7188-13.266 1.1992-4.4766 4.1133-8.2969 8.1133-10.637l7.793-4.4844c4.0195-2.3047 8.7891-2.9219 13.266-1.7227 4.4766 1.1992 8.3008 4.1172 10.633 8.1211l62.805 108.79c2.3164 4.0234 2.9453 8.7969 1.7461 13.281-1.2031 4.4805-4.1289 8.3047-8.1445 10.629z"/>
  <path d="m568.75 280.45c-4.7812 0.070313-8.6211 3.9688-8.6211 8.75s3.8398 8.6797 8.6211 8.75c4.7812-0.070312 8.6211-3.9688 8.6211-8.75s-3.8398-8.6797-8.6211-8.75z"/>
  <path d="m131.25 280.45c-4.7812 0.070313-8.6211 3.9688-8.6211 8.75s3.8398 8.6797 8.6211 8.75c4.7812-0.070312 8.6211-3.9688 8.6211-8.75s-3.8398-8.6797-8.6211-8.75z"/>
  <path d="m335.06 120.38c1.6406 1.6406 3.8672 2.5625 6.1875 2.5625s4.5469-0.92187 6.1875-2.5625l43.75-43.75c3.3047-3.4375 3.25-8.8828-0.12109-12.254s-8.8164-3.4219-12.254-0.11719l-37.562 37.562-20.062-20.062v-0.003907c-3.4375-3.3086-8.8906-3.2617-12.262 0.11328-3.375 3.375-3.4219 8.8281-0.11328 12.262z"/>
  <use x="70" y="691.25" xlink:href="#p"/>
  <use x="102.109375" y="691.25" xlink:href="#j"/>
  <use x="123.683594" y="691.25" xlink:href="#b"/>
  <use x="153.355469" y="691.25" xlink:href="#i"/>
  <use x="182.878906" y="691.25" xlink:href="#h"/>
  <use x="203.792969" y="691.25" xlink:href="#b"/>
  <use x="233.464844" y="691.25" xlink:href="#g"/>
  <use x="280.011719" y="691.25" xlink:href="#f"/>
  <use x="311.328125" y="691.25" xlink:href="#e"/>
  <use x="355.078125" y="691.25" xlink:href="#a"/>
  <use x="382.957031" y="691.25" xlink:href="#o"/>
  <use x="418.484375" y="691.25" xlink:href="#n"/>
  <use x="448.328125" y="691.25" xlink:href="#m"/>
  <use x="478.210937" y="691.25" xlink:href="#d"/>
  <use x="509.722656" y="691.25" xlink:href="#l"/>
  <use x="545.632812" y="691.25" xlink:href="#c"/>
  <use x="579.492188" y="691.25" xlink:href="#k"/>
  <use x="616.105469" y="691.25" xlink:href="#d"/>
  <use x="647.617188" y="691.25" xlink:href="#c"/>
  <use x="681.476562" y="691.25" xlink:href="#a"/>
 </g>
</svg>
