<?xml version="1.0" encoding="UTF-8"?>
<svg width="700pt" height="700pt" version="1.1" viewBox="0 0 700 700" xmlns="http://www.w3.org/2000/svg" xmlns:xlink="http://www.w3.org/1999/xlink">
 <defs>
  <symbol id="y" overflow="visible">
   <path d="m18.766-1.125c-0.96875 0.5-1.9805 0.875-3.0312 1.125-1.043 0.25781-2.1367 0.39062-3.2812 0.39062-3.3984 0-6.0898-0.94531-8.0781-2.8438-1.9922-1.9062-2.9844-4.4844-2.9844-7.7344 0-3.2578 0.99219-5.8359 2.9844-7.7344 1.9883-1.9062 4.6797-2.8594 8.0781-2.8594 1.1445 0 2.2383 0.13281 3.2812 0.39062 1.0508 0.25 2.0625 0.625 3.0312 1.125v4.2188c-0.98047-0.65625-1.9453-1.1406-2.8906-1.4531-0.94922-0.3125-1.9492-0.46875-3-0.46875-1.875 0-3.3516 0.60547-4.4219 1.8125-1.0742 1.1992-1.6094 2.8555-1.6094 4.9688 0 2.1055 0.53516 3.7617 1.6094 4.9688 1.0703 1.1992 2.5469 1.7969 4.4219 1.7969 1.0508 0 2.0508-0.14844 3-0.45312 0.94531-0.3125 1.9102-0.80078 2.8906-1.4688z"/>
  </symbol>
  <symbol id="d" overflow="visible">
   <path d="m13.734-11.141c-0.4375-0.19531-0.87109-0.34375-1.2969-0.4375-0.41797-0.10156-0.83984-0.15625-1.2656-0.15625-1.2617 0-2.2305 0.40625-2.9062 1.2188-0.67969 0.80469-1.0156 1.9531-1.0156 3.4531v7.0625h-4.8906v-15.312h4.8906v2.5156c0.625-1 1.3438-1.7266 2.1562-2.1875 0.82031-0.46875 1.8008-0.70312 2.9375-0.70312 0.16406 0 0.34375 0.011719 0.53125 0.03125 0.19531 0.011719 0.47656 0.039062 0.84375 0.078125z"/>
  </symbol>
  <symbol id="a" overflow="visible">
   <path d="m17.641-7.7031v1.4062h-11.453c0.125 1.1484 0.53906 2.0078 1.25 2.5781 0.70703 0.57422 1.7031 0.85938 2.9844 0.85938 1.0312 0 2.082-0.14844 3.1562-0.45312 1.082-0.3125 2.1914-0.77344 3.3281-1.3906v3.7656c-1.1562 0.4375-2.3125 0.76562-3.4688 0.98438-1.1562 0.22656-2.3125 0.34375-3.4688 0.34375-2.7734 0-4.9297-0.70312-6.4688-2.1094-1.5312-1.4062-2.2969-3.3789-2.2969-5.9219 0-2.5 0.75391-4.4609 2.2656-5.8906 1.5078-1.4375 3.582-2.1562 6.2188-2.1562 2.4062 0 4.332 0.73047 5.7812 2.1875 1.4453 1.4492 2.1719 3.3828 2.1719 5.7969zm-5.0312-1.625c0-0.92578-0.27344-1.6719-0.8125-2.2344-0.54297-0.57031-1.25-0.85938-2.125-0.85938-0.94922 0-1.7188 0.26562-2.3125 0.79688s-0.96484 1.2969-1.1094 2.2969z"/>
  </symbol>
  <symbol id="e" overflow="visible">
   <path d="m9.2188-6.8906c-1.0234 0-1.793 0.17188-2.3125 0.51562-0.51172 0.34375-0.76562 0.85547-0.76562 1.5312 0 0.625 0.20703 1.1172 0.625 1.4688 0.41406 0.34375 0.98828 0.51562 1.7188 0.51562 0.92578 0 1.7031-0.32812 2.3281-0.98438 0.63281-0.66406 0.95312-1.4922 0.95312-2.4844v-0.5625zm7.4688-1.8438v8.7344h-4.9219v-2.2656c-0.65625 0.92969-1.3984 1.6055-2.2188 2.0312-0.82422 0.41406-1.8242 0.625-3 0.625-1.5859 0-2.8711-0.45703-3.8594-1.375-0.99219-0.92578-1.4844-2.1289-1.4844-3.6094 0-1.7891 0.61328-3.1016 1.8438-3.9375 1.2383-0.84375 3.1797-1.2656 5.8281-1.2656h2.8906v-0.39062c0-0.76953-0.30859-1.332-0.92188-1.6875-0.61719-0.36328-1.5703-0.54688-2.8594-0.54688-1.0547 0-2.0312 0.10547-2.9375 0.3125-0.89844 0.21094-1.7305 0.52344-2.5 0.9375v-3.7344c1.0391-0.25 2.0859-0.44141 3.1406-0.57812 1.0625-0.13281 2.125-0.20312 3.1875-0.20312 2.7578 0 4.75 0.54688 5.9688 1.6406 1.2266 1.0859 1.8438 2.8555 1.8438 5.3125z"/>
  </symbol>
  <symbol id="c" overflow="visible">
   <path d="m7.7031-19.656v4.3438h5.0469v3.5h-5.0469v6.5c0 0.71094 0.14062 1.1875 0.42188 1.4375s0.83594 0.375 1.6719 0.375h2.5156v3.5h-4.1875c-1.9375 0-3.3125-0.39844-4.125-1.2031-0.80469-0.8125-1.2031-2.1797-1.2031-4.1094v-6.5h-2.4219v-3.5h2.4219v-4.3438z"/>
  </symbol>
  <symbol id="l" overflow="visible">
   <path d="m12.766-13.078v-8.2031h4.9219v21.281h-4.9219v-2.2188c-0.66797 0.90625-1.4062 1.5703-2.2188 1.9844s-1.7578 0.625-2.8281 0.625c-1.8867 0-3.4336-0.75-4.6406-2.25-1.2109-1.5-1.8125-3.4258-1.8125-5.7812 0-2.3633 0.60156-4.2969 1.8125-5.7969 1.207-1.5 2.7539-2.25 4.6406-2.25 1.0625 0 2 0.21484 2.8125 0.64062 0.82031 0.42969 1.5664 1.0859 2.2344 1.9688zm-3.2188 9.9219c1.0391 0 1.8359-0.37891 2.3906-1.1406 0.55078-0.76953 0.82812-1.8828 0.82812-3.3438 0-1.457-0.27734-2.5664-0.82812-3.3281-0.55469-0.76953-1.3516-1.1562-2.3906-1.1562-1.043 0-1.8398 0.38672-2.3906 1.1562-0.55469 0.76172-0.82812 1.8711-0.82812 3.3281 0 1.4609 0.27344 2.5742 0.82812 3.3438 0.55078 0.76172 1.3477 1.1406 2.3906 1.1406z"/>
  </symbol>
  <symbol id="k" overflow="visible">
   <path d="m10.5-3.1562c1.0508 0 1.8516-0.37891 2.4062-1.1406 0.55078-0.76953 0.82812-1.8828 0.82812-3.3438 0-1.457-0.27734-2.5664-0.82812-3.3281-0.55469-0.76953-1.3555-1.1562-2.4062-1.1562-1.0547 0-1.8594 0.38672-2.4219 1.1562-0.55469 0.77344-0.82812 1.8828-0.82812 3.3281 0 1.4492 0.27344 2.5586 0.82812 3.3281 0.5625 0.77344 1.3672 1.1562 2.4219 1.1562zm-3.25-9.9219c0.67578-0.88281 1.4219-1.5391 2.2344-1.9688 0.82031-0.42578 1.7656-0.64062 2.8281-0.64062 1.8945 0 3.4453 0.75 4.6562 2.25 1.207 1.5 1.8125 3.4336 1.8125 5.7969 0 2.3555-0.60547 4.2812-1.8125 5.7812-1.2109 1.5-2.7617 2.25-4.6562 2.25-1.0625 0-2.0078-0.21094-2.8281-0.625-0.8125-0.42578-1.5586-1.0859-2.2344-1.9844v2.2188h-4.8906v-21.281h4.8906z"/>
  </symbol>
  <symbol id="j" overflow="visible">
   <path d="m0.34375-15.312h4.8906l4.125 10.391 3.5-10.391h4.8906l-6.4375 16.766c-0.64844 1.6953-1.4023 2.8828-2.2656 3.5625-0.86719 0.6875-2 1.0312-3.4062 1.0312h-2.8438v-3.2188h1.5312c0.83203 0 1.4375-0.13672 1.8125-0.40625 0.38281-0.26172 0.67969-0.73047 0.89062-1.4062l0.14062-0.42188z"/>
  </symbol>
  <symbol id="i" overflow="visible">
   <path d="m2.5781-20.406h6.6875l4.6562 10.922 4.6719-10.922h6.6875v20.406h-4.9844v-14.938l-4.7031 11.016h-3.3281l-4.7031-11.016v14.938h-4.9844z"/>
  </symbol>
  <symbol id="x" overflow="visible">
   <path d="m6.2188-7.8281-5.5156-7.4844h5.1719l3.1406 4.5312 3.1719-4.5312h5.1719l-5.5156 7.4531 5.7969 7.8594h-5.1875l-3.4375-4.8438-3.4062 4.8438h-5.1875z"/>
  </symbol>
  <symbol id="h" overflow="visible">
   <path d="m2.3594-15.312h4.8906v15.312h-4.8906zm0-5.9688h4.8906v4h-4.8906z"/>
  </symbol>
  <symbol id="g" overflow="visible">
   <path d="m16.547-12.766c0.61328-0.94531 1.3477-1.6719 2.2031-2.1719 0.85156-0.5 1.7891-0.75 2.8125-0.75 1.7578 0 3.0977 0.54688 4.0156 1.6406 0.92578 1.0859 1.3906 2.6562 1.3906 4.7188v9.3281h-4.9219v-7.9844-0.35938c0.007813-0.13281 0.015625-0.32031 0.015625-0.5625 0-1.082-0.16406-1.8633-0.48438-2.3438-0.3125-0.48828-0.82422-0.73438-1.5312-0.73438-0.92969 0-1.6484 0.38672-2.1562 1.1562-0.51172 0.76172-0.77344 1.8672-0.78125 3.3125v7.5156h-4.9219v-7.9844c0-1.6953-0.14844-2.7852-0.4375-3.2656-0.29297-0.48828-0.8125-0.73438-1.5625-0.73438-0.9375 0-1.6641 0.38672-2.1719 1.1562-0.51172 0.76172-0.76562 1.8594-0.76562 3.2969v7.5312h-4.9219v-15.312h4.9219v2.2344c0.60156-0.86328 1.2891-1.5156 2.0625-1.9531 0.78125-0.4375 1.6406-0.65625 2.5781-0.65625 1.0625 0 2 0.25781 2.8125 0.76562 0.8125 0.51172 1.4258 1.2305 1.8438 2.1562z"/>
  </symbol>
  <symbol id="w" overflow="visible">
   <path d="m2.5781-20.406h5.25v7.4375l7.5938-7.4375h6.1094l-9.8281 9.6562 10.844 10.75h-6.5938l-8.125-8.0469v8.0469h-5.25z"/>
  </symbol>
  <symbol id="f" overflow="visible">
   <path d="m2.1875-5.9688v-9.3438h4.9219v1.5312c0 0.83594-0.007813 1.875-0.015625 3.125-0.011719 1.25-0.015625 2.0859-0.015625 2.5 0 1.2422 0.03125 2.1328 0.09375 2.6719 0.070313 0.54297 0.17969 0.93359 0.32812 1.1719 0.20703 0.32422 0.47266 0.57422 0.79688 0.75 0.32031 0.16797 0.69141 0.25 1.1094 0.25 1.0195 0 1.8203-0.39062 2.4062-1.1719 0.58203-0.78125 0.875-1.8672 0.875-3.2656v-7.5625h4.8906v15.312h-4.8906v-2.2188c-0.74219 0.89844-1.5234 1.5586-2.3438 1.9844-0.82422 0.41406-1.7344 0.625-2.7344 0.625-1.7617 0-3.1055-0.53906-4.0312-1.625-0.92969-1.082-1.3906-2.6602-1.3906-4.7344z"/>
  </symbol>
  <symbol id="v" overflow="visible">
   <path d="m2.3594-21.281h4.8906v21.281h-4.8906z"/>
  </symbol>
  <symbol id="u" overflow="visible">
   <path d="m2.3594-21.281h4.8906v11.594l5.625-5.625h5.6875l-7.4688 7.0312 8.0625 8.2812h-5.9375l-5.9688-6.3906v6.3906h-4.8906z"/>
  </symbol>
  <symbol id="b" overflow="visible">
   <path d="m9.6406-12.188c-1.0859 0-1.9141 0.39062-2.4844 1.1719-0.57422 0.78125-0.85938 1.9062-0.85938 3.375s0.28516 2.5938 0.85938 3.375c0.57031 0.77344 1.3984 1.1562 2.4844 1.1562 1.0625 0 1.875-0.38281 2.4375-1.1562 0.57031-0.78125 0.85938-1.9062 0.85938-3.375s-0.28906-2.5938-0.85938-3.375c-0.5625-0.78125-1.375-1.1719-2.4375-1.1719zm0-3.5c2.6328 0 4.6914 0.71484 6.1719 2.1406 1.4766 1.418 2.2188 3.3867 2.2188 5.9062 0 2.5117-0.74219 4.4805-2.2188 5.9062-1.4805 1.418-3.5391 2.125-6.1719 2.125-2.6484 0-4.7148-0.70703-6.2031-2.125-1.4922-1.4258-2.2344-3.3945-2.2344-5.9062 0-2.5195 0.74219-4.4883 2.2344-5.9062 1.4883-1.4258 3.5547-2.1406 6.2031-2.1406z"/>
  </symbol>
  <symbol id="t" overflow="visible">
   <path d="m0.42188-15.312h4.8906l3.8281 10.578 3.7969-10.578h4.9062l-6.0312 15.312h-5.375z"/>
  </symbol>
  <symbol id="s" overflow="visible">
   <path d="m12.422-21.281v3.2188h-2.7031c-0.6875 0-1.1719 0.125-1.4531 0.375-0.27344 0.25-0.40625 0.6875-0.40625 1.3125v1.0625h4.1875v3.5h-4.1875v11.812h-4.8906v-11.812h-2.4375v-3.5h2.4375v-1.0625c0-1.6641 0.46094-2.8984 1.3906-3.7031 0.92578-0.80078 2.3672-1.2031 4.3281-1.2031z"/>
  </symbol>
  <symbol id="r" overflow="visible">
   <path d="m17.75-9.3281v9.3281h-4.9219v-7.1094c0-1.3438-0.03125-2.2656-0.09375-2.7656s-0.16797-0.86719-0.3125-1.1094c-0.1875-0.3125-0.44922-0.55469-0.78125-0.73438-0.32422-0.17578-0.69531-0.26562-1.1094-0.26562-1.0234 0-1.8242 0.39844-2.4062 1.1875-0.58594 0.78125-0.875 1.8711-0.875 3.2656v7.5312h-4.8906v-21.281h4.8906v8.2031c0.73828-0.88281 1.5195-1.5391 2.3438-1.9688 0.83203-0.42578 1.75-0.64062 2.75-0.64062 1.7695 0 3.1133 0.54688 4.0312 1.6406 0.91406 1.0859 1.375 2.6562 1.375 4.7188z"/>
  </symbol>
  <symbol id="q" overflow="visible">
   <path d="m2.5781-20.406h5.875l7.4219 14v-14h4.9844v20.406h-5.875l-7.4219-14v14h-4.9844z"/>
  </symbol>
  <symbol id="p" overflow="visible">
   <path d="m17.75-9.3281v9.3281h-4.9219v-7.1406c0-1.3203-0.03125-2.2344-0.09375-2.7344s-0.16797-0.86719-0.3125-1.1094c-0.1875-0.3125-0.44922-0.55469-0.78125-0.73438-0.32422-0.17578-0.69531-0.26562-1.1094-0.26562-1.0234 0-1.8242 0.39844-2.4062 1.1875-0.58594 0.78125-0.875 1.8711-0.875 3.2656v7.5312h-4.8906v-15.312h4.8906v2.2344c0.73828-0.88281 1.5195-1.5391 2.3438-1.9688 0.83203-0.42578 1.75-0.64062 2.75-0.64062 1.7695 0 3.1133 0.54688 4.0312 1.6406 0.91406 1.0859 1.375 2.6562 1.375 4.7188z"/>
  </symbol>
  <symbol id="o" overflow="visible">
   <path d="m2.5781-20.406h8.7344c2.5938 0 4.582 0.57812 5.9688 1.7344 1.3945 1.1484 2.0938 2.7891 2.0938 4.9219 0 2.1367-0.69922 3.7812-2.0938 4.9375-1.3867 1.1562-3.375 1.7344-5.9688 1.7344h-3.4844v7.0781h-5.25zm5.25 3.8125v5.7031h2.9219c1.0195 0 1.8047-0.25 2.3594-0.75 0.5625-0.5 0.84375-1.2031 0.84375-2.1094 0-0.91406-0.28125-1.6172-0.84375-2.1094-0.55469-0.48828-1.3398-0.73438-2.3594-0.73438z"/>
  </symbol>
  <symbol id="n" overflow="visible">
   <path d="m2.3594-15.312h4.8906v15.031c0 2.0508-0.49609 3.6172-1.4844 4.7031-0.98047 1.082-2.4062 1.625-4.2812 1.625h-2.4219v-3.2188h0.85938c0.92578 0 1.5625-0.21094 1.9062-0.625 0.35156-0.41797 0.53125-1.2461 0.53125-2.4844zm0-5.9688h4.8906v4h-4.8906z"/>
  </symbol>
  <symbol id="m" overflow="visible">
   <path d="m14.719-14.828v3.9844c-0.65625-0.45703-1.3242-0.79688-2-1.0156-0.66797-0.21875-1.3594-0.32812-2.0781-0.32812-1.3672 0-2.4336 0.40234-3.2031 1.2031-0.76172 0.79297-1.1406 1.9062-1.1406 3.3438 0 1.4297 0.37891 2.543 1.1406 3.3438 0.76953 0.79297 1.8359 1.1875 3.2031 1.1875 0.75781 0 1.4844-0.10938 2.1719-0.32812 0.6875-0.22656 1.3203-0.56641 1.9062-1.0156v4c-0.76172 0.28125-1.5391 0.48828-2.3281 0.625-0.78125 0.14453-1.5742 0.21875-2.375 0.21875-2.7617 0-4.9219-0.70703-6.4844-2.125-1.5547-1.4141-2.3281-3.3828-2.3281-5.9062 0-2.5312 0.77344-4.5039 2.3281-5.9219 1.5625-1.4141 3.7227-2.125 6.4844-2.125 0.80078 0 1.5938 0.074219 2.375 0.21875 0.78125 0.13672 1.5547 0.35156 2.3281 0.64062z"/>
  </symbol>
 </defs>
 <g>
  <path d="m445.16 207.02 4.6875-20.637c0.82422-3.6328-0.027344-7.3867-2.3477-10.289-3.4453-4.3125-9.582-5.8086-14.621-3.4844l-19.23 8.8242-18.176-10.84c-4.9297-2.9219-11.582-1.8594-15.359 2.3867-2.2969 2.582-3.3828 6.043-2.9805 9.5039l2.457 21.012-15.926 13.938c-3.5117 3.0781-4.9453 7.8008-3.7422 12.309 1.2031 4.5078 4.793 7.8867 9.3789 8.8086l20.746 4.1562 8.3398 19.449c1.9219 4.4922 6.3164 7.3867 11.207 7.3867 4.3945 0 8.4609-2.3867 10.617-6.2148l10.367-18.441 21.074-1.9219c4.6523-0.42188 8.5898-3.3945 10.266-7.7578 1.6797-4.3633 0.75781-9.207-2.4062-12.641zm-23.184 24.594-12.176 21.656-9.7891-22.836-24.367-4.8789 18.699-16.367-2.8828-24.672 21.34 12.719 22.578-10.367-5.5039 24.227 16.84 18.266z"/>
  <path d="m592.65 173.72c-2.5195-3.8906-7.7109-5.0195-11.602-2.4961-2.1836 1.3906-5 0.80078-6.4102-1.3672-0.88672-1.3672-0.76562-2.7383-0.61719-3.4336 0.25781-1.2109 0.96875-2.2461 1.9922-2.9102 3.8867-2.5273 5-7.7227 2.4805-11.613l-14.52-22.434c-2.5195-3.8867-7.7109-5.0078-11.598-2.4922-2.1445 1.3711-5.0273 0.75781-6.4062-1.3438-1.3789-2.1406-0.75-5.0234 1.3984-6.4336 3.8633-2.5312 4.957-7.7109 2.4453-11.586l-14.52-22.43c-2.5156-3.8867-7.6992-5.0078-11.602-2.4922-1.0469 0.67188-2.2734 0.90234-3.4844 0.64453-1.1875-0.25781-2.2109-0.96484-2.9102-2.043-0.89062-1.3555-0.77734-2.7148-0.63281-3.4062 0.25391-1.2109 0.96484-2.2383 1.9883-2.9102 3.8867-2.5273 5-7.7227 2.4805-11.609l-6.082-9.4062c-6.0703-9.3867-18.648-12.098-28.051-6.0195l-244.2 158.14c-9.3359 6.0938-12.012 18.664-5.9531 28.035l11.742 18.098c-15.859 10.887-28.723 25.738-37.223 42.973l-60.535 100.64c-0.125 0.20313-0.23438 0.41406-0.33984 0.62109-2.7227 5.5391-6.7891 10.422-11.77 14.129l-37.355 27.91c-3.7188 2.7773-4.4727 8.0469-1.7031 11.762 1.6445 2.2109 4.1758 3.375 6.7383 3.375 1.7539 0 3.5117-0.54297 5.0234-1.668l37.348-27.898c0.18359-0.14062 0.34766-0.30078 0.53125-0.44922l11.156 8.8594c1.2891 1.0195 2.8242 1.5195 4.3438 1.5195 2.0664 0 4.1055-0.90625 5.4883-2.6484 2.4023-3.0312 1.8984-7.4297-1.1328-9.8398l-9.8555-7.8242c2.3281-2.9609 4.418-6.1094 6.0977-9.4766l60.547-100.65c0.125-0.20703 0.24219-0.42188 0.35156-0.63672 7.2539-14.84 18.305-27.621 31.965-36.961l1.1875-0.81641c7.6562 11.441 17.27 25.352 22.059 32.246-1.6758 3.1094-1.8086 6.9648-0.09375 10.691 2.8672 6.2344 9.5742 9.7539 15.574 8.1602 0.13281-0.039062 0.62891-0.19531 0.76172-0.23437l13.07-4.2852c3.5156-1.043 6.6016-2.0898 9.4531-3.2148 4.2188-1.6875 7.9531-3.5352 11.742-5.8086l40.398-24.164c5.3242-3.168 12.191-1.8828 15.977 3.0078 3.9531 5.1172 3.2422 12.453-1.6445 16.715l-83.535 73.715-13.551 12.453c-13.898 12.801-30.992 21.672-49.426 25.648-3.7812 0.81641-6.1836 4.543-5.3633 8.3164 0.70703 3.2812 3.6133 5.5234 6.832 5.5234 0.48828 0 0.98437-0.050782 1.4844-0.15625 20.871-4.5039 40.219-14.543 55.949-29.031l13.445-12.355 15.59-13.754c2.8398 1.6406 6.0156 2.5859 9.2852 2.5859 1.3203 0 2.6562-0.16406 3.9766-0.44922 1.9805 2.543 4.418 4.5977 7.1719 6.1445l-5.332 2.3867c-11.625 5.7617-16.398 19.918-10.633 31.543 0.10547 0.21094 0.24609 0.41016 0.35937 0.62109l-12.168 12.836c-10.574 10.348-18.445 15.406-29.062 18.648l-4.9375 1.4844c-10.16 3.0234-19.758 5.875-30.012 12.785-7.8047 5.2656-13.211 12.582-17.781 19.758l-33.312-26.438c-3.0352-2.3984-7.4375-1.8945-9.832 1.1328-2.4023 3.0312-1.8984 7.4297 1.1328 9.8398l34.52 27.395c-3.0234 4.6367-6.1992 9.1797-9.0781 13.156-2.7227 3.7539-1.8867 9.0039 1.8711 11.73 1.4883 1.0742 3.2148 1.5977 4.9219 1.5977 2.6055 0 5.1641-1.2031 6.8086-3.4727 3.7695-5.1953 8.1133-11.273 12.02-17.59l1.8477-3.0195c4.8711-7.9961 9.4766-15.551 16.289-20.156 8.1133-5.4727 15.746-7.7383 25.402-10.613l5.0664-1.5195c15.332-4.6914 25.441-12.473 36.121-22.934l11.883-12.523c2.9414 1.1484 6.0352 1.7852 9.1406 1.7812 3.6836 0 7.3516-0.81641 10.684-2.4648l24.152-10.824c5.9648-2.957 10.426-8.0625 12.555-14.375 2.1289-6.3164 1.6758-13.074-1.2891-19.047-1.6055-3.2422-3.8516-5.9414-6.4688-8.1016l2.7891-1.5195c8.9648-4.8828 14.539-14.211 14.539-24.355 0-4.582-1.1641-9.1406-3.4453-13.363l185.4-120.06c4.5547-2.9453 7.6836-7.5039 8.8047-12.82 1.1133-5.2969 0.11328-10.719-2.8281-15.262zm-207.35 218.56c-0.69531 2.0547-2.1523 3.7227-3.7969 4.5547l-24.152 10.824c-2.8281 1.3984-6.2617 1.0312-8.7266-0.95312-0.93359-0.75-1.9766-1.2617-3.0625-1.5508-0.11328-0.19141-0.26953-0.35156-0.37109-0.55469-2.3359-4.7148-0.40234-10.445 4.0586-12.668l17.82-7.9727c1.5625 0.25781 3.2148 0.085937 4.7695-0.60547l2.1406-0.96484c4.0195-1.9922 8.9141-0.33984 10.902 3.6719 0.96094 1.9453 1.1133 4.1562 0.41797 6.2188zm2.918-38.062-8.7695 4.7812c-0.52734 0.29297-1.0078 0.62891-1.4492 1.0078-0.085938 0.035157-0.17188 0.027344-0.25391 0.066407l-8.1758 3.9805c-0.11328 0.039062-0.22266 0.085937-0.33203 0.125-0.30078 0.11719-0.58984 0.24609-0.86719 0.37109l-1.0547 0.42188 0.035156 0.089844c-0.49219 0.26172-0.81641 0.57031-1.2305 0.85547-0.51953-0.039063-1.0547-0.023438-1.5898 0.0625-5.125 0.82812-9.6445-0.64453-12.145-3.9531-0.12891-0.22266-0.27344-0.46484-0.35938-0.62109-0.95312-1.9258-1.3945-3.9648-1.3086-6.0664 0.17969-4.4961 2.832-8.5391 6.9336-10.574l18.793-9.3008c0.3125-0.15625 0.51563-0.42578 0.79688-0.61719 0.3125-0.050781 0.61719 0.011719 0.92578-0.085937l4.8398-1.4375c2.8008-0.22266 5.5117 0.59766 7.8047 2.0898 0.21094 1.0547 0.63281 2.082 1.2695 3.0312 0.20703 0.30859 0.41406 0.63672 0.53125 0.83984 0.91797 1.6758 1.3828 3.4648 1.3828 5.332-0.007813 3.9844-2.2188 7.6602-5.7773 9.6016zm196.9-159.3c-0.11328 0.52734-0.45312 1.5117-1.5 2.1914l-32.336 20.938-1.457-2.2461c-1.6797-2.5938-5.1445-3.3438-7.7461-1.6523-2.5977 1.6797-3.3359 5.1445-1.6562 7.7461l1.4492 2.2383-149.28 96.656c-2.7422-0.94531-5.6289-1.4688-8.5742-1.4766l11.961-10.555c10.426-9.1055 11.961-24.832 3.4883-35.801-8.1211-10.5-22.844-13.277-34.234-6.4609l-40.402 24.168c-3.1406 1.8867-6.2422 3.4141-9.7148 4.8047-2.4375 0.96484-5.1406 1.8828-8.4492 2.8633l-6.293 2.0664-4.2188-6.5c-0.20703-0.29688-20.91-29.977-30.754-45.18-0.027344-0.042969-0.074219-0.0625-0.10156-0.10547-0.15625-1.1992-0.55469-2.375-1.2539-3.457l-13.086-20.176c-1.0469-1.6133-0.58203-3.7852 1.0039-4.8164l202.43-131.11 1.6016 2.4766c1.0703 1.6523 2.8711 2.5547 4.7031 2.5547 1.043 0 2.1016-0.29297 3.0352-0.90234 2.5977-1.6797 3.3359-5.1445 1.6562-7.7461l-1.6016-2.4688 32.336-20.938c1.6172-1.043 3.7695-0.57812 4.8164 1.043l2.4531 3.7969c-1.5195 2.25-2.5977 4.8008-3.1758 7.5469-1.1758 5.5938-0.10547 11.305 2.9844 16.023 3.1016 4.8086 7.8906 8.1211 13.48 9.3203 2.7227 0.58203 5.4766 0.63281 8.1328 0.16797l7.2695 11.227c-4.6133 6.9102-4.9961 16.211-0.21094 23.633 4.8086 7.3516 13.422 10.809 21.605 9.4062l7.2617 11.227c-1.5 2.2344-2.582 4.7656-3.1641 7.4766-1.2031 5.6055-0.15625 11.324 2.957 16.121 4.8008 7.3711 13.418 10.793 21.617 9.4414l2.4648 3.8125c0.69141 1.0547 0.60938 2.1133 0.49609 2.6484z"/>
  <path d="m501.59 141.3c-1.6797-2.5938-5.1445-3.3438-7.7461-1.6523-2.5938 1.6797-3.3359 5.1445-1.6523 7.7461l12.062 18.621c1.0703 1.6523 2.8711 2.5547 4.7031 2.5547 1.043 0 2.1016-0.29297 3.0391-0.90234 2.5938-1.6797 3.3359-5.1445 1.6523-7.7461z"/>
  <path d="m477.46 104.06c-1.6797-2.5938-5.1523-3.3438-7.7461-1.6523-2.5938 1.6797-3.3359 5.1445-1.6523 7.7461l12.062 18.621c1.0703 1.6523 2.8711 2.5547 4.7031 2.5547 1.043 0 2.1016-0.29297 3.0391-0.90234 2.5938-1.6797 3.3359-5.1445 1.6523-7.7461z"/>
  <path d="m525.71 178.55c-1.6797-2.5859-5.1445-3.3438-7.7461-1.6523-2.5938 1.6797-3.3359 5.1445-1.6523 7.7461l12.062 18.621c1.0703 1.6523 2.8711 2.5547 4.7031 2.5547 1.043 0 2.1016-0.29297 3.0391-0.90234 2.5938-1.6797 3.3359-5.1445 1.6523-7.7461z"/>
  <path d="m184.3 433.5c-3.0312-2.4141-7.4297-1.8945-9.832 1.1367s-1.8945 7.4297 1.1367 9.832l5.7383 4.5547c1.2891 1.0234 2.8242 1.5195 4.3438 1.5195 2.0625 0 4.1055-0.90625 5.4883-2.6484 2.4023-3.0234 1.8984-7.4297-1.1328-9.832z"/>
  <use x="70" y="644" xlink:href="#y"/>
  <use x="90.550781" y="644" xlink:href="#d"/>
  <use x="104.359375" y="644" xlink:href="#a"/>
  <use x="123.347656" y="644" xlink:href="#e"/>
  <use x="142.242188" y="644" xlink:href="#c"/>
  <use x="155.628906" y="644" xlink:href="#a"/>
  <use x="174.617188" y="644" xlink:href="#l"/>
  <use x="204.410156" y="644" xlink:href="#k"/>
  <use x="224.453125" y="644" xlink:href="#j"/>
  <use x="252.453125" y="644" xlink:href="#i"/>
  <use x="280.3125" y="644" xlink:href="#e"/>
  <use x="299.210938" y="644" xlink:href="#x"/>
  <use x="317.269531" y="644" xlink:href="#h"/>
  <use x="326.867188" y="644" xlink:href="#g"/>
  <use x="365.789062" y="644" xlink:href="#w"/>
  <use x="387.488281" y="644" xlink:href="#f"/>
  <use x="407.421875" y="644" xlink:href="#v"/>
  <use x="417.019531" y="644" xlink:href="#h"/>
  <use x="426.617188" y="644" xlink:href="#u"/>
  <use x="445.238281" y="644" xlink:href="#b"/>
  <use x="464.476562" y="644" xlink:href="#t"/>
  <use x="70" y="672" xlink:href="#s"/>
  <use x="82.183594" y="672" xlink:href="#d"/>
  <use x="95.992188" y="672" xlink:href="#b"/>
  <use x="115.226562" y="672" xlink:href="#g"/>
  <use x="154.152344" y="672" xlink:href="#c"/>
  <use x="167.535156" y="672" xlink:href="#r"/>
  <use x="187.46875" y="672" xlink:href="#a"/>
  <use x="216.207031" y="672" xlink:href="#q"/>
  <use x="239.640625" y="672" xlink:href="#b"/>
  <use x="258.878906" y="672" xlink:href="#f"/>
  <use x="278.8125" y="672" xlink:href="#p"/>
  <use x="308.492188" y="672" xlink:href="#o"/>
  <use x="329.015625" y="672" xlink:href="#d"/>
  <use x="342.820312" y="672" xlink:href="#b"/>
  <use x="362.058594" y="672" xlink:href="#n"/>
  <use x="371.65625" y="672" xlink:href="#a"/>
  <use x="390.648438" y="672" xlink:href="#m"/>
  <use x="407.242188" y="672" xlink:href="#c"/>
 </g>
</svg>
